<svg xmlns="http://www.w3.org/2000/svg" width="15" height="17"><path fill="#FFF" fill-rule="evenodd" d="M10.608.358l.082.057q.059.042.108.092.05.05.087.108.038.058.063.121t.037.13q.012.067.01.135t-.018.135q-.016.067-.045.131-.029.064-.07.123L9.618 3.167a9.95 9.95 0 0 1 1.327.524S9.63 5.953 7.401 5.953c-2.23 0-3.815-2.108-3.815-2.108s.562-.358 1.395-.666L3.625 1.564q-.046-.056-.08-.117-.035-.061-.056-.127-.022-.065-.03-.133t-.002-.135q.006-.068.026-.133.02-.065.052-.126.032-.06.077-.115.044-.054.1-.1l.076-.065q.055-.046.116-.08.062-.035.127-.056.066-.022.133-.03.068-.008.136-.002.067.006.132.025.066.02.126.053.061.032.116.077.054.044.1.1l1.757 2.093q.035.042.064.088c.196-.022.396-.035.597-.035.286 0 .571.022.85.059l.024-.036L9.633.53q.084-.119.2-.195.116-.076.251-.1.135-.024.27.008.136.032.254.115zM2.55 4.526s.9 1.109 1.496 1.534c.595.425 1.857.86 1.857.86s1.156 2.7.69 5.133c-.467 2.432-2.367 4.35-2.367 4.35S.25 14.079.25 10.214s2.3-5.687 2.3-5.687zm9.4 0s-.9 1.109-1.496 1.534c-.595.425-1.857.86-1.857.86s-1.156 2.7-.69 5.133c.467 2.432 2.367 4.35 2.367 4.35s3.976-2.325 3.976-6.19-2.3-5.687-2.3-5.687z"/></svg>