<svg xmlns="http://www.w3.org/2000/svg" width="15" height="17"><path fill="#FFF" fill-rule="evenodd" d="M8.03 8.215c.109-.066.2-.205.275-.359.976.4 1.663 1.342 1.663 2.442 0 1.461-1.211 2.645-2.705 2.645-.613 0-1.179-.2-1.632-.535a6.387 6.387 0 0 1-.372-.194c-.155-.086-.257-.142-.321-.133-.187.025-.132.197-.083.353.033.106.064.204.016.245-.05.043-.214-.113-.405-.295-.26-.248-.57-.544-.717-.455-.116.07-.003.261.134.495l.01.017c.059.099.126.2.188.291.125.187.226.337.175.363-.06.03-.485-.256-.843-.654-.138-.153-.272-.32-.396-.475-.272-.338-.499-.62-.626-.587-.153.04-.037.356.133.66.08.142.173.287.254.412.126.195.222.343.187.361-.047.024-.459-.377-.739-.883-.346-.627-.577-1.391-.692-1.433-.209-.076-.209.35-.125.964.01.08.027.164.047.25.812 2.627 3.306 4.54 6.258 4.54 3.61 0 6.536-2.862 6.536-6.393 0-3.36-2.65-6.115-6.019-6.373.004-.158.087-.472.087-.472s.594-1.439.626-1.746L8.95 1.2c.037-.332.106-.95-.425-.95-.393 0-.495.404-.759.734-.527.658-1.413 1.48-1.916 1.918-1.545 1.347-3.048 2.344-3.233 2.524-.435.425-1.996 3.24-1.996 3.24S.118 9.567.297 9.75c.18.183.612.142.612.142s5.81-1.334 6.33-1.439c.521-.105.473-.045.791-.239zM3.922 6.502c-.312.296-.83 1.004-.83 1.004s.962.06 1.492-.444c.53-.503.408-1.361.408-1.361s-.758.505-1.07.801z"/></svg>