<svg xmlns="http://www.w3.org/2000/svg" width="11" height="17"><path fill="#FFF" d="M2.451.25h4.77q.045 0 .09.008.046.008.091.023t.088.038q.043.022.082.051.039.029.073.063.034.034.062.073.028.038.049.08.021.041.034.084l2.33 7.527q.013.043.018.084.005.042 0 .08-.004.039-.017.073-.013.034-.034.063-.021.029-.05.051-.029.023-.064.038-.036.015-.077.023-.04.008-.086.008H6.7q-.045 0-.08.016-.037.015-.059.044-.022.03-.027.069-.005.039.007.082l1.988 6.999q.013.043.02.079.006.035.008.06.001.027-.003.042-.005.016-.014.02-.01.006-.025 0-.015-.006-.035-.023-.02-.017-.044-.044-.024-.026-.05-.063L.513 5.433Q.487 5.396.47 5.36q-.018-.035-.026-.067t-.006-.06q.002-.03.014-.053.012-.025.034-.043.022-.02.052-.032.03-.013.07-.02.038-.006.083-.006h2.773q.045 0 .08-.015.036-.016.056-.044.02-.029.024-.067.003-.039-.012-.082L2.155.666Q2.14.623 2.135.582 2.127.54 2.13.502q.003-.037.015-.071.012-.034.032-.062.02-.029.048-.05.028-.023.063-.038.035-.016.076-.023.04-.008.086-.008z"/></svg>