<svg xmlns="http://www.w3.org/2000/svg" width="16" height="16"><path fill="#FFF" fill-rule="evenodd" d="M3.327 12.23l2.268-.658L7.634 15.3q.05.091.116.091.067 0 .116-.09l2.04-3.729 2.267.658q.1.029.147-.018.047-.047.017-.147l-.656-2.219 3.62-1.98q.09-.05.09-.116 0-.067-.09-.116l-3.652-1.997.688-2.325q.03-.1-.017-.147-.047-.047-.147-.018l-2.326.674L7.867.2Q7.816.109 7.75.109t-.116.09l-1.98 3.622-2.327-.675q-.1-.028-.147.019-.047.047-.017.147l.688 2.325L.2 7.634q-.091.05-.091.116 0 .067.09.116l3.62 1.98-.656 2.219q-.03.1.017.147.047.047.147.018zM5.24 7.887L6.8 8.74l.854 1.561q.05.091.116.091.067 0 .117-.09L8.74 8.74l1.561-.854q.091-.05.091-.117 0-.066-.09-.116L8.74 6.8l-.854-1.561q-.05-.092-.117-.092-.066 0-.116.092L6.8 6.8l-1.561.854q-.092.05-.092.116 0 .067.092.117z"/></svg>