<svg xmlns="http://www.w3.org/2000/svg" width="15" height="16"><path fill="#FFF" fill-rule="evenodd" d="M3.94.25h.046-.09.045zm0 0q.216.006.419.059.202.053.382.151.18.099.33.238.148.139.258.311.07-.007.14-.008.158.003.31.033.114-.123.251-.22.137-.098.293-.167Q6.48.58 6.65.542q.17-.037.346-.041.126.003.247.022.122.02.238.055.116.035.225.086.108.05.207.116.1.066.188.145.088.079.164.17.075.09.137.193.062.101.11.212h.057H8.511h.012q.174.005.34.04.202-.136.44-.21.236-.073.492-.08.132.004.26.025t.249.06q.121.04.234.095.113.056.215.128.102.072.192.159.09.086.165.186.075.1.135.21.06.11.102.23.19.065.357.17.196-.123.422-.19.226-.067.47-.072.085.002.169.011.084.01.166.027.081.018.16.042.08.025.155.057.076.032.147.07.072.04.139.085.067.046.129.098.062.052.118.11.057.058.107.121.05.064.094.132t.081.141q.037.073.068.15.03.076.052.156.023.08.038.162.016.082.023.167.008.084.008.17v4.235q0 .131-.015.267c.01.14.015.28.015.423 0 3.52-3.134 6.375-7 6.375s-7-2.854-7-6.375c0-1.7.73-3.244 1.92-4.386-.002 1.658.025 3.372.155 3.343.343-.079.078-5.159.013-6.317q.033-.136.087-.262.054-.127.127-.242.073-.115.163-.216.091-.1.198-.184.106-.085.226-.15.12-.066.251-.112.13-.045.27-.07.138-.025.28-.028zm8.655 2h-.045.09-.045zm-2.8-1H9.75h.09-.045zM6.995.5H6.95h.09-.045zM5.468 1h-.045.09-.045z"/></svg>