<svg xmlns="http://www.w3.org/2000/svg" width="12" height="16"><path fill="#FFF" fill-rule="evenodd" d="M8.736 11.69c.183-.67-.173-2.045-.173-2.045s-.257 1.12-.66 1.535a2.127 2.127 0 0 1-1.368.663c.494-.24.833-.74.833-1.317 0-.811-.669-1.468-1.494-1.468s-1.493.657-1.493 1.468c0 .221.05.431.139.62-.516-.412-.597-1.07-.597-1.07s-.576 2.391 1.011 3.517c1.588 1.125 4.697.158 4.697.158s-4.45 3.13-7.748-.277c-2.84-2.936-.74-6.8-.74-6.8s-.092.358-.092.774c0 .416.226.733.226.733s.673-1.419 1.197-1.996c.878-.966 2.149-1.61 2.647-2.167C6.316 2.682 5.583.25 5.583.25S6.93 1.437 7.305 2.97c.144.584.052 1.249-.03 1.843-.135.965-.243 1.745.724 1.695 1.562-.082.204-2.49.204-2.49s3.543 1.862 3.279 5.119c-.265 3.256-3.873 3.997-3.873 3.997s.943-.775 1.127-1.444z"/></svg>