<svg xmlns="http://www.w3.org/2000/svg" width="16" height="14"><path fill="#FFF" d="M5.486 13.25c2.197 0 4.078-1.221 4.855-2.953.01-.02-3.118.813-3.018.518.044-.131 1.961-.831 3.358-1.648.803-.47 1.173-1.464 1.173-1.464s-1.353.657-2.037.823c-1.378.336-2.59.3-2.59.265 0-.076 2.014-.458 4.813-2.164 1.316-.802 1.674-2.185 1.674-2.185s-1.447.863-2.323 1.147c-2.075.676-3.969.879-3.969.788 0-.196 1.667-.654 3.434-1.51.919-.446 1.714-1.027 2.636-1.674C15.002 2.135 15.25.25 15.25.25s-1.488.96-2.214 1.278c-2.997 1.316-5.643 2.006-7.55 2.155C2.606 3.908.25 5.918.25 8.526c0 2.61 2.344 4.724 5.236 4.724z"/></svg>