<?xml version="1.0" encoding="utf-8"?>
<svg width="15px" height="15px" viewBox="0 0 15 15" version="1.1" xmlns:xlink="http://www.w3.org/1999/xlink" xmlns="http://www.w3.org/2000/svg">
  <desc>Created with Lunacy</desc>
  <path d="M10.0885 13.9515C8.82573 14.0162 7.37997 14.0162 6.88865 13.9515C3.05622 13.4473 0 10.6453 0 6.85781C0 3.07034 3.13401 0 7 0C10.866 0 14 3.07034 14 6.85781C14 8.61933 13.3221 10.2257 12.2079 11.4403C11.9053 11.7701 12.3205 12.0014 12.7422 12.2364C13.1559 12.467 13.576 12.7011 13.3318 13.0351C13.0628 13.4032 11.6045 13.8739 10.0885 13.9515ZM4.3756 5.07206C4.04834 5.25725 3.82813 5.60372 3.82813 6.00058C3.82813 6.59237 4.31781 7.07211 4.92188 7.07211C5.52594 7.07211 6.01563 6.59237 6.01563 6.00058L5.33938 6.00058Q5.24259 6.00058 5.14944 5.98344Q5.05629 5.96631 4.96969 5.93257Q4.88308 5.89882 4.80572 5.84953Q4.72835 5.80023 4.66263 5.73691Q4.59691 5.67359 4.54487 5.59822Q4.49283 5.52285 4.4561 5.43777Q4.41937 5.35269 4.39909 5.26055Q4.3788 5.16841 4.3756 5.07206ZM7.76563 6.00058C7.76563 6.59237 8.25531 7.07211 8.85938 7.07211C9.46344 7.07211 9.95313 6.59237 9.95313 6.00058C9.95313 5.60372 9.73291 5.25725 9.40565 5.07206Q9.40245 5.16841 9.38217 5.26055Q9.36188 5.35269 9.32515 5.43777Q9.28842 5.52285 9.23638 5.59822Q9.18435 5.67359 9.11862 5.73691Q9.0529 5.80023 8.97553 5.84953Q8.89817 5.89882 8.81156 5.93257Q8.72496 5.96631 8.63181 5.98344Q8.53867 6.00058 8.44187 6.00058L7.76563 6.00058Z" transform="translate(0.25 0.25)" id="Oval-10" fill="#FFFFFF" fill-rule="evenodd" stroke="none" />
</svg>