<svg xmlns="http://www.w3.org/2000/svg" width="15" height="15"><path fill="#FFF" fill-rule="evenodd" d="M10.338 14.201c-1.262.065-2.708.065-3.2 0C3.307 13.697.25 10.895.25 7.108.25 3.32 3.384.25 7.25.25s7 3.07 7 6.858a6.755 6.755 0 0 1-1.792 4.582c-.303.33.112.561.534.796.414.231.834.465.59.8-.27.367-1.728.838-3.244.915zM4.627 5.322a1.067 1.067 0 0 0-.548.929c0 .591.49 1.071 1.094 1.071.604 0 1.094-.48 1.094-1.071h-.677q-.096 0-.19-.018-.093-.017-.18-.05-.086-.034-.163-.083-.078-.05-.143-.113-.066-.063-.118-.139-.052-.075-.089-.16T4.65 5.51q-.02-.093-.023-.189zm3.39.929c0 .591.49 1.071 1.093 1.071.604 0 1.094-.48 1.094-1.071 0-.397-.22-.744-.547-.929q-.004.096-.024.189-.02.092-.057.177-.037.085-.089.16-.052.076-.117.139-.066.063-.143.113-.078.049-.164.083-.087.033-.18.05-.093.018-.19.018h-.676z"/></svg>