<svg xmlns="http://www.w3.org/2000/svg" width="16" height="12"><path fill="#FFF" fill-rule="evenodd" d="M3.718 11.207h-.125q-.042 0-.061-.027-.02-.027-.005-.067L7.304.44q.014-.04.041-.075.028-.035.065-.06.037-.027.079-.041Q7.53.25 7.572.25h3.742q.041 0 .083.014t.08.04q.036.026.063.062.027.035.041.074l3.688 10.577q.028.082-.01.136-.039.054-.125.054H3.718zm-1.147.043H.359q-.086 0-.124-.054-.037-.054-.007-.134l2.748-7.337q.015-.039.043-.073.027-.035.065-.061.038-.026.08-.04.042-.014.084-.014h2.117q.086 0 .124.054.037.054.008.135l-2.656 7.335q-.015.04-.042.074-.028.035-.065.061-.037.026-.08.04-.041.014-.083.014z"/></svg>