<svg xmlns="http://www.w3.org/2000/svg" width="16" height="16"><path fill="#FFF" fill-rule="evenodd" d="M12.784 11.777c1.514-1.211 2.466-2.961 2.466-4.907 0-3.656-3.358-6.62-7.5-6.62C3.608.25.25 3.214.25 6.87c0 1.875.884 3.569 2.304 4.774a3.45 3.45 0 0 0-.133.958c0 1.463.884 2.648 1.974 2.648.708 0 1.33-.5 1.677-1.252.349.752.97 1.252 1.678 1.252.646 0 1.219-.416 1.579-1.059.36.643.933 1.059 1.579 1.059 1.09 0 1.974-1.185 1.974-2.648 0-.288-.035-.566-.098-.825zM12.092 7c0 1.856-1.988 3.36-4.44 3.36-2.453 0-4.441-1.504-4.441-3.36 0-1.856 1.988-3.36 4.44-3.36 2.453 0 4.441 1.504 4.441 3.36z"/></svg>