<?xml version="1.0" encoding="utf-8"?>
<svg width="16px" height="16px" viewBox="0 0 16 16" version="1.1" xmlns:xlink="http://www.w3.org/1999/xlink" xmlns="http://www.w3.org/2000/svg">
  <desc>Created with Lunacy</desc>
  <path d="M12.5338 11.5268C14.0485 10.3156 15 8.56571 15 6.61964C15 2.96371 11.6421 0 7.5 0C3.35786 0 0 2.96371 0 6.61964C0 8.49546 0.883997 10.189 2.30436 11.3936C2.21828 11.6908 2.17105 12.0141 2.17105 12.3521C2.17105 13.8145 3.0547 15 4.14474 15C4.85302 15 5.47417 14.4995 5.82237 13.7477C6.17057 14.4995 6.79171 15 7.5 15C8.14563 15 8.71886 14.5841 9.07895 13.9411C9.43904 14.5841 10.0123 15 10.6579 15C11.7479 15 12.6316 13.8145 12.6316 12.3521C12.6316 12.064 12.5973 11.7865 12.5338 11.5268ZM11.8421 6.75091C11.8421 8.607 9.8539 10.1117 7.40132 10.1117C4.94874 10.1117 2.96053 8.607 2.96053 6.75091C2.96053 4.89483 4.94874 3.39017 7.40132 3.39017C9.8539 3.39017 11.8421 4.89483 11.8421 6.75091Z" transform="translate(0.25 0.25)" id="Oval-3" fill="#FFFFFF" fill-rule="evenodd" stroke="none" />
</svg>