<svg xmlns="http://www.w3.org/2000/svg" width="14" height="15"><path fill="#FFF" d="M12.225 11.876s-1.766 1.416-5.279.83C4.281 12.262 2.86 9.324 2.86 7.744 2.86 4 5.63 3.148 7.504 3.148S10.6 4.975 10.6 6.388c0 1.415-1 2.652-2.557 2.652-1.556 0-2.017-1.093-2.017-2.097 0-1.005.812-1.359 1.554-1.359.741 0 .995.633.995 1.177S8.153 7.5 7.8 7.5c-.352 0-.387-.178-.522-.365-.135-.186.172-.893-.333-.893-.504 0-.599.812-.599.812s.184 1.568 1.696 1.541c1.512-.027 2.229-1.196 2.02-2.353-.208-1.157-1.33-2.386-3.302-2.138-1.97.249-2.775 2.24-2.42 4.368.354 2.128 2.904 3.36 4.908 2.917 2.005-.443 4.001-1.894 4.001-5.574 0-3.679-3.186-5.89-6.986-5.526C2.464.654.106 3.975.257 7.967c.15 3.99 3.938 6.165 7.14 6.277 3.203.112 5.166-1.742 5.166-1.742s.442-.394.269-.701c-.173-.308-.607.075-.607.075z"/></svg>