<svg xmlns="http://www.w3.org/2000/svg" width="15" height="12"><path fill="#FFF" fill-rule="evenodd" d="M12.655 7.628L11.165 5.6q-.022-.03-.04-.07-.017-.04-.028-.086-.01-.045-.013-.09-.002-.043.005-.08l.844-4.925q.004-.02.014-.039.01-.018.027-.032.016-.013.036-.02.02-.008.04-.008h.09q.02 0 .041.007t.039.02q.018.013.03.031.014.018.02.037l1.925 6.095q.011.036.01.077 0 .04-.012.08t-.035.073q-.022.034-.052.057l-1.2.936q-.061.048-.133.038-.072-.01-.118-.073zm-9.52 2.219L.423 8.96q-.036-.012-.068-.036Q.324 8.9.3 8.868t-.037-.071Q.25 8.759.25 8.72V5.965q0-.038.009-.082.008-.044.024-.088Q.3 5.75.321 5.71q.021-.04.046-.069L4.699.416q.024-.03.059-.055.035-.026.076-.046.042-.02.084-.03.042-.01.08-.01h5.685q.079 0 .123.052.045.051.033.129L10.16 5.01q-.005.037-.022.078-.016.041-.04.08-.025.04-.054.072-.03.033-.061.054L3.458 9.8q-.031.021-.072.036-.04.015-.085.022-.045.006-.088.003-.043-.002-.079-.014zm4.605 1.346l-3.163-1.036 5.668-3.878q.064-.044.137-.03.072.013.115.078l1.29 1.92q.021.031.03.067.007.036 0 .071-.006.036-.026.067-.02.03-.05.053l-3.679 2.638q-.03.023-.07.038-.041.016-.086.022-.044.007-.087.005-.043-.003-.079-.015z"/></svg>