<svg xmlns="http://www.w3.org/2000/svg" width="16" height="14"><path fill="#FFF" fill-rule="evenodd" d="M3.809 12.929L.379 7.075q-.039-.067-.06-.15Q.3 6.842.3 6.754q0-.09.02-.172.021-.083.06-.15l3.43-5.86q.04-.067.101-.126.063-.06.14-.104.077-.045.16-.068.083-.024.16-.024h6.8q.077 0 .16.024.082.024.159.068.077.045.139.104.062.06.1.126l3.392 5.86q.039.066.06.15.02.083.02.172 0 .089-.02.172-.021.083-.06.15l-3.391 5.852q-.039.066-.1.126-.063.06-.14.104-.077.044-.16.068-.082.024-.16.024h-6.8q-.076 0-.159-.024-.083-.023-.16-.068-.077-.044-.14-.103-.062-.06-.101-.126zM11.25 6.75a3.5 3.5 0 1 1-7 0 3.5 3.5 0 0 1 7 0z"/></svg>